<?xml version="1.0" encoding="UTF-8" standalone="no"?>
<!-- Created with Inkscape (http://www.inkscape.org/) -->

<svg
   xmlns:dc="http://purl.org/dc/elements/1.1/"
   xmlns:cc="http://creativecommons.org/ns#"
   xmlns:rdf="http://www.w3.org/1999/02/22-rdf-syntax-ns#"
   xmlns:svg="http://www.w3.org/2000/svg"
   xmlns="http://www.w3.org/2000/svg"
   xmlns:sodipodi="http://sodipodi.sourceforge.net/DTD/sodipodi-0.dtd"
   xmlns:inkscape="http://www.inkscape.org/namespaces/inkscape"
   width="744.09448819"
   height="1052.3622047"
   id="svg6272"
   version="1.1"
   inkscape:version="0.48.3.1 r9886"
   sodipodi:docname="graphics.svg">
  <defs
     id="defs6274" />
  <sodipodi:namedview
     id="base"
     pagecolor="#ffffff"
     bordercolor="#666666"
     borderopacity="1.0"
     inkscape:pageopacity="0.0"
     inkscape:pageshadow="2"
     inkscape:zoom="2.8"
     inkscape:cx="193.20544"
     inkscape:cy="552.4403"
     inkscape:document-units="px"
     inkscape:current-layer="layer1"
     showgrid="false"
     inkscape:window-width="1871"
     inkscape:window-height="1056"
     inkscape:window-x="49"
     inkscape:window-y="24"
     inkscape:window-maximized="1" />
  <metadata
     id="metadata6277">
    <rdf:RDF>
      <cc:Work
         rdf:about="">
        <dc:format>image/svg+xml</dc:format>
        <dc:type
           rdf:resource="http://purl.org/dc/dcmitype/StillImage" />
        <dc:title></dc:title>
      </cc:Work>
    </rdf:RDF>
  </metadata>
  <g
     inkscape:label="Layer 1"
     inkscape:groupmode="layer"
     id="layer1">
    <path
       sodipodi:type="arc"
       style="fill:none;fill-rule:evenodd;stroke:#969696;stroke-width:6;stroke-linecap:butt;stroke-linejoin:miter;stroke-opacity:1;stroke-miterlimit:4;stroke-dasharray:none"
       id="path6287"
       sodipodi:cx="333.39285"
       sodipodi:cy="519.68359"
       sodipodi:rx="40.17857"
       sodipodi:ry="40.17857"
       d="m 373.57142,519.68359 a 40.17857,40.17857 0 1 1 -80.35714,0 40.17857,40.17857 0 1 1 80.35714,0 z"
       inkscape:export-filename="/home/kpw/workspace/TrafficProbe/res/drawable-hdpi/logo.png"
       inkscape:export-xdpi="156.29523"
       inkscape:export-ydpi="156.29523" />
    <path
       inkscape:connector-curvature="0"
       style="fill:#969696;fill-opacity:1;stroke:#9a9a9a;display:inline;enable-background:new;stroke-opacity:1"
       id="path5"
       d="m 353.03676,515.57229 -3.9345,-10.5678 c -0.7359,-1.9451 -2.3438,-3.6 -5.3871,-3.614 l -20.6774,0 c -3.0292,0.013 -4.6373,1.6689 -5.3865,3.614 l -3.9355,10.5678 c -1.5625,0.2015 -4.3278,1.63 -4.3229,5.1079 l 0,12.7965 4,0 0,3 c 0,2 7,2 7,0 l 0,-3 26,0 0,3 c 0,2 7,2 7,0 l 0,-3 4,0 0,-12.7965 c -0.011,-3.4779 -2.7792,-4.9064 -4.3561,-5.1079 z m -36.0949,10.2377 c -1.8404,0.01 -3.3304,-1.5298 -3.3227,-3.4176 -0.01,-1.9008 1.4823,-3.4373 3.3227,-3.4214 1.8345,-0.016 3.3244,1.5206 3.322,3.4214 0,1.8878 -1.488,3.4225 -3.322,3.4176 z m 1.071,-10.3333 2.7672,-8.0319 c 0.3581,-1.1357 0.9139,-1.9483 2.2267,-1.9681 l 20.7733,0 c 1.2926,0.02 1.8499,0.832 2.2252,1.9681 l 2.7676,8.0319 z m 31.8314,10.3333 c -1.8532,0.01 -3.3441,-1.5298 -3.3542,-3.4176 0.01,-1.9008 1.501,-3.4373 3.3542,-3.4214 1.8217,-0.016 3.311,1.5206 3.3226,3.4214 -0.011,1.8878 -1.5009,3.4225 -3.3226,3.4176 z"
       inkscape:export-filename="/home/kpw/workspace/TrafficProbe/res/drawable-hdpi/logo.png"
       inkscape:export-xdpi="156.29523"
       inkscape:export-ydpi="156.29523" />
    <path
       inkscape:connector-curvature="0"
       d="m 88.928572,446.1479 c -13.81,0 -25,11.19 -25,25 0,13.81 11.19,25 25,25 13.809998,0 24.999998,-11.19 24.999998,-25 0,-13.81 -11.19,-25 -24.999998,-25 z m 0,2.4375 c 2.571,0 5.0414,0.4264 7.3438,1.2187 0.5126,0.8762 0.6722,2.0094 0.6874,3 -0.7415,2.4384 -3.3344,3.3963 -5.1874,4.8126 -0.9285,1.0874 -2.5857,3.6664 -3.7188,1.375 -1.0637,-1.4182 0.1266,-2.914 0.3438,-4.375 0.4083,-1.3303 1.1959,-3.2662 -0.6876,-3.875 -1.3168,-0.2801 -1.069,-1.3192 -0.375,-2.0938 0.5272,-0.037 1.0572,-0.062 1.5938,-0.062 z m -3.6562,0.2813 c -0.014,0.047 -0.01,0.1054 -0.031,0.1562 -0.3898,0.6468 -0.4967,1.4223 -0.75,2.125 -0.1108,0.8508 -0.9462,1.3153 -1.7187,1.4688 -0.721,0.3327 -1.5819,-0.3171 -1.0626,-1.0626 0.3646,-0.8091 1.394,-0.6553 2,-1.1562 0.4334,-0.3249 0.391,-0.8011 0.375,-1.2812 0.3968,-0.087 0.7833,-0.1841 1.1876,-0.25 z m -10,4.3124 c 1.0412,-0.038 2.0608,0.2711 2.0937,1.3126 -0.7419,0.7965 -2.0919,2.9712 0.062,2 1.4878,-1.0335 2.5194,0.8123 1.1875,1.8437 -1.359,0.6756 -2.6387,2.0907 -2.0625,3.7187 0.8756,1.4962 2.9326,0.9739 3.75,-0.2812 0.3617,-1.8225 2.4048,-1.7963 3.7812,-1.1875 1.2585,1.1466 1.2001,3.2188 1.5,4.7813 -0.9915,1.2174 -2.7058,-1.8163 -3.0937,0.5 -0.645,1.5429 -2.5184,2.0894 -3.4375,3.5624 -1.27,0.792 -1.7327,2.3353 -2.25,3.4688 -1.5302,-0.4927 -3.688,-1.8191 -4.9375,0.094 -1.1039,1.6086 1.295,2.5475 2.5,3 1.2149,0.6018 1.8329,2.3793 3.5937,1.8124 1.4899,0.5496 3.7954,-0.9898 4.5313,0.9063 0.2496,1.989 2.6166,2.1658 4.125,2.7813 1.7157,0.1779 2.051,1.8276 1.8437,3.25 0.091,1.6536 -1.059,2.8273 -1.9062,4.0937 -1.1341,1.2561 -2.9125,1.7474 -4.0312,3.0625 -0.2426,0.1821 -0.5234,0.4169 -0.8126,0.625 1.7784,0.5386 1.4534,0.4449 0,0 -1.3583,-0.4587 -2.6463,-1.0535 -3.875,-1.75 -4.5131,-3.2685 -3.7398,-2.1392 0,0 -0.039,-1.091 0.4517,-2.4127 0.2188,-3.4375 -0.8056,-1.2813 -2.2184,-1.9754 -2.9375,-3.375 -0.5921,-1.7575 1.0333,-3.4859 0.625,-5.3125 -1.0401,-1.3168 -2.8358,-1.7883 -4.4375,-2 -1.2509,-0.9307 -2.0146,-2.3324 -3.4062,-3 -0.4642,-1.1602 -1.0986,-2.2575 -1.5,-3.4375 0.2853,-6.9403 3.6968,-13.087 8.875,-17.0313 z m 5.0624,0.4688 c 0.3012,-0.013 0.598,0.1105 0.875,0.2188 0.7588,0.3925 1.9837,-0.5375 2.4376,0.5 0.2682,0.8437 1.6537,0.8366 1.5937,1.7812 -0.077,0.9761 -0.9491,1.5066 -1.625,2.0625 -0.89,1.0284 -1.4666,-0.1593 -1,-1.0625 0.3375,-0.8959 0.033,-1.8351 -0.9375,-2.0938 -0.303,-0.9318 -1.3401,-0.9843 -2.0312,-0.4062 -1.1542,0.5026 -0.3053,-1.0677 0.375,-0.9375 0.099,-0.043 0.2121,-0.058 0.3124,-0.062 z m 23.718798,1.125 c 0.1371,6e-4 0.2681,0.01 0.4062,0.031 4.3245,4.1109 7.0313,9.9074 7.0313,16.3438 0,1.8468 -0.2375,3.6257 -0.6563,5.3438 -0.7141,-0.3575 -1.4258,-1.4218 -1.8437,-2.2813 -0.4997,-0.6086 -0.8584,-0.8298 -1.0625,-0.8125 -0.4489,0.038 -0.1887,1.2279 0.6875,1.9688 0.8529,1.3246 1.2064,2.8126 1.1875,4.3124 0.3832,-0.9365 0.7128,-1.9102 0.9688,-2.9062 -0.256,0.9945 -0.5856,1.9698 -0.9688,2.9062 -1.6047,3.922 -4.2714,7.2971 -7.6562,9.75 -1.2183,0.8483 -0.9949,0.6934 0,0 -0.1529,-0.1386 -0.2949,-0.3166 -0.4376,-0.5624 -1.0271,-2.3784 -1.4691,-4.9333 -2.281198,-7.3438 0.2933,-3.8973 -3.6609,-2.7436 -6.125,-2.8125 -3.274,-1.2433 -0.4574,-5.0276 0.5938,-6.9687 -0.1461,-2.8687 2.4522,-4.5408 3.0624,-7.0938 -1.6286,-0.2187 -1.0153,-3.7463 0.2813,-1.2812 1.455,0.5865 3.715198,-0.2008 5.281298,-0.8438 2.4242,-0.9133 1.4615,-5.8662 -0.5938,-2.5625 -1.2647,3.0069 -4.368198,-0.1646 -2.031198,-1.9375 0.728698,-1.6326 2.385298,-3.2577 4.156198,-3.25 z m -8.281198,2.625 c 0.1871,0 0.3648,0.065 0.5312,0.094 0.2157,0.01 0.4549,0.081 0.625,0.2187 0.3464,0.1899 0.2726,0.6607 0,0.875 -0.297,0.3666 -0.86,0.2868 -1.2188,0.062 -0.3874,-0.1599 -0.6638,-0.6408 -0.4374,-1.0312 0.1197,-0.1608 0.3124,-0.2233 0.5,-0.2188 z m 10.499998,8.5 c -0.408,0 -0.7856,0.226 -0.7188,0.7188 0.1238,0.8392 -0.1486,2.1537 -1.25,2.0312 -1.2076,-0.1546 -1.3834,-1.6708 -2.4062,-2.0625 -0.8752,0.1048 -1.7028,0.5565 -2.593798,0.6563 -0.9804,0.5569 -1.8604,1.3479 -2.5,2.2812 0.5697,0.3208 1.2622,-0.1118 1.8438,-0.2188 0.7561,-0.216 2.050098,-0.2151 2.281198,0.7188 -0.1572,0.8308 0.079,1.9574 1.1562,1.8438 1.2807,-0.093 2.4291,-0.7202 3.6876,-0.9376 0.6538,-0.025 2.2327,-1.0149 1.25,-1.5312 -1.0481,0.1901 -1.0644,-0.8879 -0.2813,-1.3125 1.0724,0.027 1.0113,-0.9088 0.4375,-1.5625 -0.079,-0.4098 -0.4986,-0.6265 -0.9062,-0.625 z"
       id="path5082"
       style="fill:#77bf77;fill-opacity:1;fill-rule:nonzero;stroke:none;display:inline;enable-background:new"
       inkscape:export-filename="/home/kpw/workspace/TrafficProbe/res/drawable-hdpi/globe.png"
       inkscape:export-xdpi="180"
       inkscape:export-ydpi="180" />
    <path
       inkscape:connector-curvature="0"
       d="m 141.92857,453.79075 0,7 22,11 22,-11 0,-7 z m 0,9.9123 0,23.0877 44,0 0,-23.0877 -22,11 z"
       id="rect5127"
       style="fill:#6e6ee4;fill-opacity:1;fill-rule:nonzero;stroke:none;display:inline;enable-background:new"
       inkscape:export-filename="/home/kpw/workspace/TrafficProbe/res/drawable-hdpi/mail.png"
       inkscape:export-xdpi="204.54546"
       inkscape:export-ydpi="204.54546" />
    <path
       inkscape:connector-curvature="0"
       d="m 226.42857,449.79076 c -1.108,0 -2,0.892 -2,2 l 0,4 44,0 0,-4 c 0,-1.108 -0.892,-2 -2,-2 l -40,0 z m -2,13 0,18 c 0,1.108 0.892,2 2,2 l 40,0 c 1.108,0 2,-0.892 2,-2 l 0,-18 -44,0 z m 5,6 21,0 0,2 -21,0 0,-2 z m 0,5 14,0 0,2 -14,0 0,-2 z"
       id="rect8145"
       style="fill:#e2ad23;fill-opacity:1;fill-rule:nonzero;stroke:none;display:inline;enable-background:new"
       inkscape:export-filename="/home/kpw/workspace/TrafficProbe/res/drawable-hdpi/settings.png"
       inkscape:export-xdpi="204.54553"
       inkscape:export-ydpi="204.54553" />
    <path
       inkscape:connector-curvature="0"
       d="m 189.14286,565.00504 -8,0 0,-21 c 0,-6.78762 -2.2908,-11.40217 -6.0625,-13.8125 -3.7717,-2.41033 -8.3834,-2.6875 -12.9375,-2.6875 l 4.1875,5.1875 c 2.4522,0.24936 4.5513,0.77297 6.0313,1.71875 2.2689,1.45013 3.7812,3.82322 3.7812,9.59375 l 0,21 -8,0 10.5625,13 10.4375,-13 z m -17,11.5 -4.1875,-5.1875 c -2.4522,-0.24936 -4.5513,-0.77297 -6.0313,-1.71875 -2.2689,-1.45013 -3.7812,-3.82322 -3.7812,-9.59375 l 0,-21 8,0 -10.5625,-13 -10.4375,13 8,0 0,21 c 0,6.78762 2.2908,11.40217 6.0625,13.8125 3.7717,2.41033 8.3834,2.6875 12.9375,2.6875 z"
       id="path7180"
       style="fill:#b65353;fill-opacity:1;stroke:none;display:inline;enable-background:new"
       inkscape:export-filename="/home/kpw/workspace/TrafficProbe/res/drawable-ldpi/change.png"
       inkscape:export-xdpi="60.576958"
       inkscape:export-ydpi="60.576958" />
  </g>
</svg>
